<svg width="31" height="48" viewBox="0 0 31 48" fill="none" xmlns="http://www.w3.org/2000/svg">
<path d="M0.733154 33.0242C0.733154 41.1798 7.34454 47.7911 15.5 47.7911C23.6555 47.7911 30.2669 41.1798 30.2669 33.0242C30.2669 24.8204 26.165 18.2573 28.9171 12.5147C28.9171 12.5147 24.5242 13.3351 22.0631 19.8981C22.0631 19.8981 13.8593 11.6943 17.2869 0.208984C17.2869 0.208984 8.93706 3.49047 9.81026 14.1554C10.5591 23.3007 8.93706 24.8204 8.93706 24.8204C8.93706 17.437 3.16449 14.1554 3.16449 14.1554C4.83506 23.1797 0.733154 25.6408 0.733154 33.0242Z" fill="#FFB446"/>
<path d="M26.1591 36.5214C26.1591 42.6637 21.4164 47.9073 15.2752 47.7888C9.49588 47.6774 5.19592 43.2802 5.65549 37.5362C5.86059 34.9726 7.80894 30.8194 10.9879 26.615L13.1073 27.8968C13.0388 22.7011 15.4999 15.7963 15.4999 15.7963C17.1166 23.0714 26.1591 24.9571 26.1591 36.5214Z" fill="#FFDC64"/>
<path d="M11.398 31.3834C10.5776 36.3057 8.93689 38.0978 8.93689 41.228C8.93689 44.5095 11.8754 47.791 15.5 47.791C19.1508 47.791 22.0731 44.8081 22.0629 41.1573C22.0355 31.3521 16.3204 26.4612 16.3204 26.4612C17.1408 31.3835 14.6796 33.8445 14.6796 33.8445C13.6544 32.3069 11.398 31.3834 11.398 31.3834Z" fill="white"/>
</svg>
