<svg width="145" height="184" viewBox="0 0 145 184" fill="none" xmlns="http://www.w3.org/2000/svg">
<path d="M111.771 183.309H33.2292L0.698853 89.528H144.301L111.771 183.309Z" fill="#2D9EAA"/>
<path d="M2.16418 89.528H144.301L111.771 183.309" fill="#18899B"/>
<path d="M99.462 183.309H45.5379L23.558 89.528H121.442L99.462 183.309Z" fill="#99CCCE"/>
<path d="M25.6095 89.528H121.442L99.4621 183.309" fill="#88BCBC"/>
<path d="M83.0505 183.309H61.9497L53.4508 89.528H91.5494L83.0505 183.309Z" fill="#18899B"/>
<path d="M81.2921 183.309H61.9497L53.4508 89.528" fill="#2D9EAA"/>
<path d="M144.301 89.5279H0.698853L10.6631 68.7203L134.63 69.0134L144.301 89.5279Z" fill="#0A6077"/>
<path d="M128.183 89.5279H16.8176L10.3701 69.0133H134.63L128.183 89.5279Z" fill="#02445B"/>
<path d="M93.0146 156.933H51.9854L45.538 115.904H99.4621L93.0146 156.933Z" fill="#EFD27F"/>
<path d="M46.1241 115.904H99.4621L93.6008 155.175" fill="#E2B544"/>
<circle cx="54.9161" cy="123.524" r="2.34453" fill="#0A6077"/>
<circle cx="63.7081" cy="123.524" r="2.34453" fill="#0A6077"/>
<circle cx="72.5" cy="123.524" r="2.34453" fill="#0A6077"/>
<circle cx="81.292" cy="123.524" r="2.34453" fill="#0A6077"/>
<circle cx="90.0839" cy="123.524" r="2.34453" fill="#0A6077"/>
<path d="M59.0189 151.365C59.0189 152.537 58.1397 153.416 56.9675 153.416C55.7952 153.416 54.916 152.537 54.916 151.365C54.916 150.193 55.7952 149.313 56.9675 149.313C58.1397 149.313 59.0189 150.193 59.0189 151.365Z" fill="#0A6077"/>
<circle cx="64.8803" cy="151.365" r="2.05146" fill="#0A6077"/>
<circle cx="72.4999" cy="151.365" r="2.05146" fill="#0A6077"/>
<circle cx="80.1197" cy="151.365" r="2.05146" fill="#0A6077"/>
<circle cx="88.0325" cy="151.365" r="2.05146" fill="#0A6077"/>
<path d="M48.1755 66.3757C46.4171 62.8589 42.6073 61.1005 38.7974 62.2728C34.9876 63.4451 32.643 66.9619 33.2292 71.0648C29.4193 72.5301 27.0748 76.633 28.2471 80.7359C29.4193 84.8389 33.8153 87.4765 38.2113 86.0111C41.435 85.1319 43.4865 82.4943 43.7795 79.2706C45.831 81.6151 49.0547 82.7874 52.2784 81.9082C56.3814 80.7359 59.019 76.34 57.5536 71.944C56.3814 67.548 52.2785 65.2035 48.1755 66.3757Z" fill="#EFD27F"/>
<path d="M38.2113 85.7181C41.435 84.8389 43.4865 82.2013 43.7796 78.9776C45.831 81.3221 49.0547 82.4943 52.2785 81.6151C56.3814 80.4429 59.019 76.0469 57.5536 71.6509C56.3814 67.548 52.2785 65.2035 48.1755 66.0827" fill="#E2B544"/>
<path d="M43.7796 78.9776C45.8311 81.3221 49.0548 82.4944 52.2785 81.6152C56.3814 80.4429 59.019 76.0469 57.5537 71.6509C56.3814 67.548 52.2785 65.2035 48.1756 66.0827C46.4172 62.5659 42.6073 60.8075 38.7975 61.9798" fill="#E2B544"/>
<path d="M34.1084 72.8232C34.6945 73.4093 34.4014 74.5816 33.5222 76.0469C32.643 77.2192 31.1777 78.0984 30.5916 77.5122C30.0054 76.9261 30.2985 75.7538 31.1777 74.2885C32.0569 72.8232 33.5222 72.237 34.1084 72.8232Z" fill="#FFF0B0"/>
<path d="M38.2113 63.7382C38.7974 64.0312 38.5044 65.2035 37.6252 66.3757C36.746 67.548 35.5737 68.1342 35.2806 67.548C34.6945 67.2549 34.9876 66.0827 35.8668 64.9104C36.746 64.0312 37.6252 63.4451 38.2113 63.7382Z" fill="#FFF0B0"/>
<path d="M118.218 9.52098C118.511 5.71112 116.167 1.90127 112.357 1.02207C108.547 -0.150194 104.737 1.90127 102.979 5.41806C98.876 4.53886 94.773 7.17645 93.6008 10.9863C92.4285 15.3823 95.0661 19.4852 99.169 20.6575C102.393 21.5367 105.616 20.3644 107.375 18.0199C107.961 20.9505 110.012 23.5881 113.236 24.4673C117.632 25.6396 122.028 23.002 122.907 18.8991C124.666 15.0892 122.321 10.9863 118.218 9.52098Z" fill="#EFD27F"/>
<path d="M99.462 20.9506C102.686 21.8298 105.909 20.6575 107.668 18.313C108.254 21.2436 110.305 23.8812 113.529 24.7604C117.925 25.9327 122.321 23.2951 123.2 19.1922C124.373 15.0892 122.028 10.9863 118.218 9.521" fill="#E2B544"/>
<path d="M107.961 18.313C108.547 21.2436 110.599 23.8812 113.822 24.7604C118.218 25.9327 122.614 23.2951 123.493 19.1922C124.666 15.0893 122.321 10.9863 118.511 9.521C118.804 5.71115 116.46 1.90129 112.65 1.02209" fill="#E2B544"/>
<path d="M102.979 7.46945C103.272 8.05559 102.1 9.22785 100.634 9.81398C99.1689 10.4001 97.7036 10.4001 97.4106 9.52092C97.1175 8.93478 98.2898 7.76252 99.7551 7.17639C101.22 6.88332 102.686 6.88332 102.979 7.46945Z" fill="#FFF0B0"/>
<path d="M111.185 2.19431C111.478 2.78044 110.599 3.65964 109.133 4.24577C107.961 4.8319 106.496 4.53883 106.203 3.9527C105.909 3.36657 106.789 2.48737 108.254 1.90124C109.719 1.60818 110.892 1.60818 111.185 2.19431Z" fill="#FFF0B0"/>
<path d="M68.1041 8.05566C66.6387 5.71114 63.7081 4.83194 61.0705 5.71114C58.4329 6.8834 57.2606 9.52099 57.8468 12.1586C55.2092 13.3308 54.0369 16.5546 55.2092 19.4852C56.3814 22.4159 59.6051 23.5882 62.5358 22.4159C64.5873 21.5367 66.0526 19.4852 66.0526 17.1407C67.5179 18.606 70.1555 19.1922 72.207 18.313C75.1376 17.1407 76.3099 13.917 75.1376 10.9863C73.9654 8.34873 70.7416 7.17647 68.1041 8.05566Z" fill="#EFD27F"/>
<path d="M62.5358 22.4159C64.5872 21.5367 66.0526 19.4852 66.0526 17.1407C67.5179 18.606 70.1555 19.1921 72.2069 18.3129C75.1376 17.1407 76.3098 13.9169 75.1376 10.9863C73.9653 8.34869 71.0347 6.88336 68.104 7.76256" fill="#E2B544"/>
<path d="M65.7595 17.4338C67.2248 18.8991 69.8624 19.4852 71.9139 18.606C74.8445 17.4338 76.0168 14.21 74.8445 11.2794C73.6723 8.64179 70.7416 7.17646 67.811 8.05566C66.6387 5.71114 63.708 4.83194 61.0704 5.71114" fill="#E2B544"/>
<ellipse cx="60.1193" cy="18.6825" rx="0.879197" ry="2.05146" transform="rotate(-149.116 60.1193 18.6825)" fill="#FFF0B0"/>
<path d="M60.7773 7.17645C61.0704 7.46952 61.0704 8.34872 60.4842 9.22792C59.8981 10.1071 59.312 10.6932 58.7258 10.4002C58.4328 10.1071 58.4328 9.22792 59.0189 8.34872C59.605 7.46952 60.4842 6.88339 60.7773 7.17645Z" fill="#FFF0B0"/>
<path d="M131.992 56.7046C131.699 54.3601 129.941 52.3086 127.303 52.3086C124.959 52.3086 122.614 53.7739 122.321 56.1185C119.684 56.1185 117.632 58.1699 117.339 60.8075C117.046 63.4451 119.391 65.7896 122.028 66.0827C124.08 66.0827 125.838 65.2035 126.717 63.4451C127.303 65.2035 129.062 66.6688 131.113 66.6688C133.751 66.9619 136.095 64.6174 136.388 61.9798C136.388 59.3422 134.63 56.9976 131.992 56.7046Z" fill="#EFD27F"/>
<path d="M122.028 65.7896C124.08 65.7896 125.838 64.9104 126.717 63.152C127.303 64.9104 129.062 66.3757 131.113 66.3757C133.751 66.6688 136.095 64.3243 136.388 61.6867C136.681 59.0491 134.63 56.9976 131.992 56.4115" fill="#E2B544"/>
<path d="M126.717 63.152C127.303 64.9104 129.062 66.3757 131.113 66.3757C133.751 66.6688 136.095 64.3243 136.388 61.6867C136.682 59.0491 134.63 56.9976 131.992 56.4115C131.699 54.067 129.941 52.0155 127.303 52.0155" fill="#E2B544"/>
<path d="M122.321 57.5838C122.614 57.8768 122.028 58.756 121.149 59.3422C120.27 59.9283 119.391 59.9283 119.097 59.6352C118.804 59.3422 119.391 58.463 120.27 57.8768C121.149 57.2907 122.028 56.9976 122.321 57.5838Z" fill="#FFF0B0"/>
<path d="M126.717 53.1878C127.01 53.4809 126.424 54.067 125.838 54.6531C125.252 55.2393 124.373 55.2393 124.08 54.9462C123.787 54.6531 124.373 54.067 124.959 53.4809C125.838 52.8947 126.424 52.8947 126.717 53.1878Z" fill="#FFF0B0"/>
<path d="M78.9474 74.8746C78.6544 72.5301 76.896 70.4786 74.2584 70.4786C71.9138 70.4786 69.5693 71.944 69.2763 74.2885C66.6387 74.2885 64.5872 76.34 64.2941 78.9775C64.0011 81.6151 66.3456 83.9597 68.9832 84.2527C71.0347 84.2527 72.793 83.3735 73.6722 81.6151C74.2584 83.3735 76.0168 84.8389 78.0682 84.8389C80.7058 85.1319 83.0503 82.7874 83.3434 80.1498C83.3434 77.5122 81.585 75.1677 78.9474 74.8746Z" fill="#EFD27F"/>
<path d="M68.9833 83.9597C71.0347 83.9597 72.7931 83.0805 73.6723 81.3221C74.2585 83.0805 76.0168 84.5458 78.0683 84.5458C80.7059 84.8389 83.0504 82.4944 83.3435 79.8568C83.6366 77.2192 81.5851 75.1677 78.9475 74.5816" fill="#E2B544"/>
<path d="M73.6724 81.3221C74.2585 83.0805 76.0169 84.5458 78.0684 84.5458C80.706 84.8389 83.0505 82.4944 83.3435 79.8568C83.6366 77.2192 81.5851 75.1677 78.9475 74.5816C78.6545 72.2371 76.8961 70.1856 74.2585 70.1856" fill="#E2B544"/>
<ellipse cx="70.6574" cy="78.6618" rx="0.879197" ry="1.75839" transform="rotate(-123.162 70.6574 78.6618)" fill="#FFF0B0"/>
<path d="M73.6723 71.3579C73.9654 71.651 73.3793 72.2371 72.7931 72.8232C72.207 73.4094 71.3278 73.4094 71.0347 73.1163C70.7417 72.8232 71.3278 72.2371 71.9139 71.651C72.7931 71.0648 73.6723 71.0648 73.6723 71.3579Z" fill="#FFF0B0"/>
<path d="M121.735 37.9484C121.442 35.6038 119.684 33.5524 117.046 33.5524C114.702 33.5524 112.357 35.0177 112.064 37.3622C109.426 37.3622 107.375 39.4137 107.082 42.0513C106.789 44.6889 109.133 47.0334 111.771 47.3265C113.822 47.3265 115.581 46.4473 116.46 44.6889C117.046 46.4473 118.804 47.9126 120.856 47.9126C123.494 48.2057 125.838 45.8611 126.131 43.2235C126.424 40.5859 124.373 38.2414 121.735 37.9484Z" fill="#EFD27F"/>
<path d="M112.064 47.0334C114.115 47.0334 115.874 46.1542 116.753 44.3958C117.339 46.1542 119.098 47.6195 121.149 47.6195C123.787 47.9126 126.131 45.5681 126.424 42.9305C126.717 40.2929 124.666 38.2414 122.028 37.6553" fill="#E2B544"/>
<path d="M116.753 44.3958C117.339 46.1542 119.098 47.6195 121.149 47.6195C123.787 47.9126 126.131 45.5681 126.424 42.9305C126.717 40.2929 124.666 38.2414 122.028 37.6553C121.735 35.3107 119.977 33.2593 117.339 33.2593" fill="#E2B544"/>
<path d="M112.357 38.8276C112.65 39.1206 112.064 39.9998 111.185 40.5859C110.305 41.1721 109.426 41.1721 109.133 40.879C108.84 40.5859 109.426 39.7067 110.305 39.1206C111.185 38.5345 112.064 38.2414 112.357 38.8276Z" fill="#FFF0B0"/>
<path d="M116.46 34.4316C116.753 34.7246 116.167 35.3108 115.581 35.8969C114.995 36.483 114.115 36.483 113.822 36.19C113.529 35.8969 114.115 35.3108 114.702 34.7246C115.581 34.1385 116.46 34.1385 116.46 34.4316Z" fill="#FFF0B0"/>
<path d="M64.8803 32.3801C64.5872 30.9148 63.415 29.4495 61.9496 29.4495C60.1913 29.4495 59.019 30.3287 58.7259 32.0871C56.9675 32.0871 55.5022 33.5524 55.5022 35.0177C55.5022 36.7761 56.6745 38.2414 58.4329 38.5345C59.8982 38.5345 61.0704 37.9484 61.6566 36.7761C61.9496 37.9484 63.1219 38.8276 64.5872 38.8276C66.3456 38.8276 67.811 37.6553 68.104 35.8969C67.811 34.1385 66.3456 32.6732 64.8803 32.3801Z" fill="#EFD27F"/>
<path d="M58.1398 38.5345C59.6051 38.5345 60.7774 37.9484 61.3635 36.7761C61.6566 37.9484 62.8288 38.8276 64.2942 38.8276C66.0526 38.8276 67.5179 37.6553 67.8109 35.8969C67.8109 34.1385 66.6387 32.6732 64.8803 32.3801" fill="#E2B544"/>
<path d="M61.3635 36.7761C61.6566 37.9484 62.8288 38.8276 64.2942 38.8276C66.0526 38.8276 67.5179 37.6553 67.811 35.8969C67.811 34.1385 66.6387 32.6732 64.8803 32.3801C64.5872 30.9148 63.415 29.4495 61.9496 29.4495" fill="#E2B544"/>
<path d="M58.4328 32.9662C58.7259 33.2593 58.1397 33.8454 57.8467 34.1385C57.2606 34.4316 56.6744 34.7246 56.6744 34.4316C56.3814 34.1385 56.6744 33.5524 57.2606 33.2593C57.5536 32.6732 58.1397 32.6732 58.4328 32.9662Z" fill="#FFF0B0"/>
<path d="M61.3635 30.0356C61.6566 30.3286 61.3635 30.6217 60.7774 30.9148C60.1912 31.2078 59.8982 31.2078 59.6051 31.2078C59.6051 30.9148 59.6051 30.6217 60.1912 30.3286C60.7774 30.0356 61.0704 29.7425 61.3635 30.0356Z" fill="#FFF0B0"/>
<path d="M102.393 51.4294C102.1 49.9641 100.927 48.4988 99.4621 48.4988C97.9968 48.4988 96.5314 49.378 96.2383 51.1364C94.48 51.1364 93.0146 52.6017 93.0146 54.067C93.0146 55.8254 94.1869 57.2908 95.9453 57.5838C97.4106 57.5838 98.5829 56.9977 99.169 55.8254C99.4621 56.9977 100.634 57.8769 102.1 57.8769C103.858 57.8769 105.323 56.7046 105.616 54.9462C105.323 52.8948 104.151 51.4294 102.393 51.4294Z" fill="#EFD27F"/>
<path d="M95.9453 57.5838C97.4106 57.5838 98.5829 56.9977 99.169 55.8254C99.4621 56.9977 100.634 57.8769 102.1 57.8769C103.858 57.8769 105.323 56.7046 105.616 54.9462C105.616 53.1878 104.444 51.7225 102.686 51.4294" fill="#E2B544"/>
<path d="M98.876 55.5323C99.169 56.7046 100.341 57.5838 101.807 57.5838C103.565 57.5838 105.03 56.4115 105.323 54.6531C105.323 52.8947 104.151 51.4294 102.393 51.1364C102.1 49.671 100.927 48.2057 99.4621 48.2057" fill="#E2B544"/>
<path d="M95.9453 51.7224C96.2384 52.0155 95.6523 52.6016 95.3592 52.8947C94.7731 53.1877 94.1869 53.4808 94.1869 53.1877C93.8939 52.8947 94.48 52.3085 94.7731 52.0155C95.3592 51.7224 95.9453 51.7224 95.9453 51.7224Z" fill="#FFF0B0"/>
<path d="M98.8759 49.0848C99.169 49.3779 98.8759 49.671 98.2898 49.964C97.7037 50.2571 97.4106 50.2571 97.1176 50.2571C97.1176 49.964 97.1176 49.671 97.7037 49.3779C98.2898 48.7918 98.8759 48.7918 98.8759 49.0848Z" fill="#FFF0B0"/>
<path d="M27.0748 53.7739C25.6095 51.4294 22.6788 50.2571 20.3343 51.4294C17.6967 52.6016 16.5244 55.2392 17.1106 57.8768C14.473 59.0491 13.3007 62.2728 14.473 65.2035C15.6452 68.1341 18.869 69.3064 21.7996 68.1341C23.8511 67.2549 25.3164 65.2035 25.3164 62.859C26.7817 64.3243 29.1262 64.9104 31.4708 64.0312C34.4014 62.859 35.5737 59.6352 34.4014 56.7046C32.9361 54.067 30.0054 52.8947 27.0748 53.7739Z" fill="#EFD27F"/>
<path d="M21.5066 68.1341C23.5581 67.2549 25.0234 65.2035 25.0234 62.8589C26.4887 64.3243 28.8332 64.9104 31.1778 64.0312C34.1084 62.8589 35.2807 59.6352 34.1084 56.7045C32.9362 54.067 30.0055 52.6016 27.0748 53.4808" fill="#E2B544"/>
<path d="M25.0234 63.152C26.4887 64.6173 28.8333 65.2035 31.1778 64.3243C34.1084 63.152 35.2807 59.9283 34.1084 56.9976C32.9362 54.36 30.0055 52.8947 27.0749 53.7739C25.6095 51.4294 22.6789 50.2571 20.3344 51.4294" fill="#E2B544"/>
<path d="M17.6968 59.3422C18.2829 59.6352 17.9898 60.5144 17.4037 61.6867C16.8176 62.5659 15.9384 63.152 15.6453 62.8589C15.0592 62.5659 15.3522 61.6867 15.9384 60.5144C16.2314 59.6352 17.1106 59.0491 17.6968 59.3422Z" fill="#FFF0B0"/>
<path d="M20.0413 52.8947C20.3344 53.1878 20.3344 54.067 19.7483 54.9462C19.1621 55.8254 18.576 56.4115 17.9899 56.1184C17.6968 55.8254 17.6968 54.9462 18.2829 54.067C18.8691 53.1878 19.7483 52.6017 20.0413 52.8947Z" fill="#FFF0B0"/>
<path d="M76.0168 49.0849C75.1376 45.275 71.6208 42.6374 67.5179 43.2236C63.708 43.5166 60.4843 46.7404 60.1912 50.5502C56.0883 51.1363 53.1576 54.9462 53.4507 59.0491C53.7438 63.4451 57.8467 66.6688 62.2427 66.3758C65.4664 66.0827 68.104 63.7382 68.9832 61.1006C70.4485 63.7382 73.3792 65.4966 76.6029 65.2035C80.9989 64.9104 84.2226 60.8075 83.9296 56.4115C83.6365 52.0155 80.1197 49.0849 76.0168 49.0849Z" fill="#EFD27F"/>
<path d="M62.2427 66.3757C65.4664 66.0827 68.104 63.7381 68.9832 61.1005C70.4485 63.7381 73.3792 65.4965 76.6029 65.2035C80.9989 64.9104 84.2226 60.8075 83.9296 56.4115C83.6365 52.3086 80.1197 49.0848 75.7237 49.0848" fill="#E2B544"/>
<path d="M68.9832 60.8075C70.4486 63.4451 73.3792 65.2035 76.603 64.9104C80.9989 64.6174 84.2227 60.5144 83.9296 56.1184C83.6366 52.0155 80.1198 48.7918 75.7238 48.7918C74.8446 44.9819 71.3278 42.3443 67.2249 42.9305" fill="#E2B544"/>
<path d="M60.7773 52.6017C61.3635 53.1878 60.7773 54.3601 59.6051 55.5323C58.4328 56.7046 56.9675 56.9976 56.3813 56.4115C55.7952 55.8254 56.3813 54.6531 57.8467 53.4809C59.0189 52.3086 60.1912 52.0155 60.7773 52.6017Z" fill="#FFF0B0"/>
<path d="M66.6387 44.6889C67.2248 45.275 66.6387 46.4473 65.4664 47.3265C64.2942 48.2057 63.1219 48.4987 62.8288 48.2057C62.5358 47.6195 62.8288 46.4473 64.0011 45.5681C65.1734 44.6889 66.3456 44.3958 66.6387 44.6889Z" fill="#FFF0B0"/>
<path d="M96.8245 28.2772C96.8245 24.4673 93.8939 21.2436 89.791 20.6575C85.9811 20.0713 82.1712 22.7089 81.292 26.2257C77.1891 25.9327 73.3792 28.8633 72.7931 33.2593C72.207 37.6553 75.4307 41.7582 79.8267 42.3443C83.0504 42.6374 85.9811 41.1721 87.7395 38.5345C88.6187 41.4651 91.2563 43.8097 94.48 44.1027C98.876 44.6889 102.979 41.4651 103.565 37.0691C103.565 32.6732 100.927 28.8633 96.8245 28.2772Z" fill="#EFD27F"/>
<path d="M79.5336 42.0513C82.7573 42.3444 85.6879 40.879 87.4464 38.2414C88.3255 41.1721 90.9631 43.5166 94.1869 43.8097C98.5829 44.3958 102.686 41.1721 103.272 36.7761C103.858 32.6732 100.927 28.8633 96.8244 27.9841" fill="#E2B544"/>
<path d="M87.4464 38.2414C88.3256 41.1721 90.9632 43.5166 94.1869 43.8096C98.5829 44.3958 102.686 41.1721 103.272 36.7761C103.858 32.6731 100.927 28.8633 96.8245 27.9841C96.8245 24.1742 93.8939 20.9505 89.7909 20.3644" fill="#E2B544"/>
<path d="M80.9989 28.2772C81.292 28.8633 80.4128 30.0356 78.9475 30.9148C77.4821 31.794 76.0168 31.794 75.7238 31.2079C75.4307 30.6217 76.3099 29.4495 77.7752 28.5703C79.2405 27.6911 80.7059 27.6911 80.9989 28.2772Z" fill="#FFF0B0"/>
<path d="M88.6187 22.1228C88.9117 22.709 88.3256 23.5882 86.8603 24.4674C85.688 25.0535 84.5158 25.0535 84.2227 24.4674C83.9296 23.8812 84.5157 23.002 85.9811 22.1228C87.1533 21.5367 88.3256 21.5367 88.6187 22.1228Z" fill="#FFF0B0"/>
<path d="M112.943 68.1341C112.943 64.3243 110.012 61.1005 105.91 60.5144C102.1 59.9283 98.2898 62.5659 97.4106 66.0827C93.3076 65.7896 89.4978 68.7202 88.9117 73.1162C88.3255 77.5122 91.5493 81.6151 95.6522 82.2013C98.8759 82.4943 101.807 81.029 103.565 78.3914C104.444 81.3221 107.082 83.6666 110.305 83.9597C114.701 84.5458 118.804 81.3221 119.391 77.2191C119.684 72.5301 117.046 68.7202 112.943 68.1341Z" fill="#EFD27F"/>
<path d="M95.6522 81.9082C98.8759 82.2012 101.807 80.7359 103.565 78.0983C104.444 81.029 107.082 83.3735 110.306 83.6666C114.702 84.2527 118.804 81.029 119.391 76.9261C119.977 72.8232 117.046 69.0133 112.943 68.1341" fill="#E2B544"/>
<path d="M103.565 78.0983C104.444 81.029 107.082 83.3735 110.306 83.6666C114.702 84.2527 118.805 81.029 119.391 76.9261C119.977 72.8232 117.046 69.0133 112.943 68.1341C112.943 64.3243 110.013 61.1005 105.91 60.5144" fill="#E2B544"/>
<path d="M97.4106 68.1342C97.7036 68.7203 96.8244 69.8926 95.3591 70.7717C93.8938 71.6509 92.4284 71.6509 92.1354 71.0648C91.8423 70.4787 92.7215 69.3064 94.1868 68.4272C95.3591 67.548 96.8244 67.548 97.4106 68.1342Z" fill="#FFF0B0"/>
<path d="M104.737 61.6867C105.03 62.2728 104.444 63.152 102.979 64.0312C101.807 64.6173 100.634 64.9104 100.341 64.3243C100.048 63.7381 100.634 62.8589 102.1 61.9797C103.272 61.3936 104.444 61.1005 104.737 61.6867Z" fill="#FFF0B0"/>
<path d="M44.6587 31.794C44.6587 27.9842 41.7281 24.7604 37.6252 24.1743C33.8153 23.5882 30.0055 26.2258 29.1263 29.7426C25.0233 29.4495 21.2135 32.3802 20.6274 36.7761C20.0412 41.1721 23.2649 45.275 27.6609 45.8612C30.8847 46.1542 33.8153 44.6889 35.5737 42.0513C36.4529 44.982 39.0905 47.3265 42.3142 47.6196C46.7102 48.2057 50.8131 44.982 51.3993 40.8791C51.3993 36.4831 48.7617 32.6732 44.6587 31.794Z" fill="#EFD27F"/>
<path d="M27.3679 45.568C30.5916 45.8611 33.5223 44.3958 35.2807 41.7582C36.1599 44.6888 38.7975 47.0334 42.0212 47.3264C46.4172 47.9126 50.5201 44.6888 51.1062 40.5859C51.6924 36.483 48.7617 32.6731 44.6588 31.7939" fill="#E2B544"/>
<path d="M35.2808 41.7582C36.16 44.6889 38.7975 47.0334 42.0213 47.3265C46.4173 47.9126 50.5202 44.6889 51.1063 40.5859C51.6924 36.483 48.7618 32.6732 44.6589 31.794C44.6589 27.9841 41.7282 24.7604 37.6253 24.1743" fill="#E2B544"/>
<path d="M28.8332 32.087C29.1262 32.6731 28.247 33.8454 26.7817 34.7246C25.3164 35.6038 23.851 35.6038 23.558 35.0177C23.2649 34.4315 24.1441 33.2593 25.6094 32.3801C27.0748 31.5009 28.5401 31.2078 28.8332 32.087Z" fill="#FFF0B0"/>
<path d="M36.4529 25.6396C36.7459 26.2257 36.1598 27.1049 34.6945 27.9841C33.5222 28.5702 32.35 28.8633 31.7638 28.2772C31.4708 27.691 32.0569 26.8118 33.5222 25.9326C34.9875 25.0534 36.1598 25.0534 36.4529 25.6396Z" fill="#FFF0B0"/>
</svg>
